PathFileType	4	(X/Y/Z)	C:\Users\chris\Desktop\Pose2Sim_Project\videos\pitch1_Sports2D\pitch1_Sports2D_px_person00.trc
DataRate	CameraRate	NumFrames	NumMarkers	Units	OrigDataRate	OrigDataStartFrame	OrigNumFrames
30.0	30.0	12	22	m	30.0	13	110
Frame#	Time	Hip			RHip			RKnee			RAnkle			RBigToe			RSmallToe			RHeel			LHip			LKnee			LAnkle			LBigToe			LSmallToe			LHeel			Neck			Head			Nose			RShoulder			RElbow			RWrist			LShoulder			LElbow			LWrist		
		X1	Y1	Z1	X2	Y2	Z2	X3	Y3	Z3	X4	Y4	Z4	X5	Y5	Z5	X6	Y6	Z6	X7	Y7	Z7	X8	Y8	Z8	X9	Y9	Z9	X10	Y10	Z10	X11	Y11	Z11	X12	Y12	Z12	X13	Y13	Z13	X14	Y14	Z14	X15	Y15	Z15	X16	Y16	Z16	X17	Y17	Z17	X18	Y18	Z18	X19	Y19	Z19	X20	Y20	Z20	X21	Y21	Z21	X22	Y22	Z22
13	0.43333333333333335	402.28211543334464	359.24719881674844	0.0	365.88643109171164	365.27307518807197	0.0	358.42366634993226	508.9753477190927	0.0	357.89239868729817	629.1007577567862	0.0	356.90811368477273	676.4721385882006	0.0	336.39887398544465	668.9735658897418	0.0	363.57122518369687	645.792410479323	0.0	440.36546593534604	365.3147321690047	0.0	454.45515035429514	504.47081397380543	0.0	474.60586582277	619.6376800292313	0.0	444.2414161333994	665.9522890248494	0.0	470.3587405794917	663.5987937717315	0.0	483.98296902366565	634.8674888676175	0.0	397.8546195843144	142.9983362358541	0.0	409.1398939175317	47.03998186073784	0.0	441.1896541400737	103.10969484235399	0.0	321.8948065044824	182.4597201977083	0.0	310.69984601211365	278.4384218928673	0.0	368.24012277622245	321.81429132302145	0.0	467.45631422439294	182.19961634670886	0.0	487.6419026579299	276.48085340540723	0.0	448.69858653659406	335.1741756407698	0.0
14	0.4666666666666667	403.05014643771824	359.6753776087186	0.0	366.52462457827687	365.4137806387888	0.0	358.8406463311938	508.68970052203673	0.0	358.16648993938605	628.8077663290038	0.0	357.03027073287694	676.4205420907238	0.0	336.6984538850903	668.8504416323218	0.0	363.8960713707814	646.1963808914771	0.0	440.9564756056978	365.5934546273147	0.0	454.80203288170384	505.0968160537885	0.0	474.7763754644322	619.8434742883628	0.0	444.96458788744786	665.7193089608683	0.0	470.44460233263226	663.5313127109034	0.0	484.28177238939656	634.8482758705597	0.0	398.7641757290046	142.64750821202	0.0	409.97348364577385	47.17482177248405	0.0	441.5067257050153	103.1447773681997	0.0	322.50426818917606	183.05423234675266	0.0	311.04039800275586	278.2212220576371	0.0	369.32436065899407	322.31749734301513	0.0	467.66606386092644	182.11811492106116	0.0	488.64340362711226	276.5727715999835	0.0	449.0741838623983	335.9975944470489	0.0
15	0.5	403.7361612409051	359.54277018956117	0.0	366.92138145278454	365.2313611280147	0.0	359.35811645784935	508.67208188737203	0.0	358.16146248316045	628.5626637632353	0.0	356.8097999363492	676.4555971359183	0.0	336.2386149322633	668.980475059825	0.0	363.8156241973364	646.1546783174346	0.0	441.76008164285844	365.5785103231449	0.0	454.83715837237514	505.2918621475457	0.0	474.93721592726575	619.9812118988983	0.0	445.95614461132277	665.8263016149283	0.0	471.0678606893549	663.6539975123933	0.0	484.3295561316491	634.5406428965381	0.0	399.81858797764767	142.59141971696553	0.0	410.8809341198305	47.12396814273642	0.0	442.4109368732179	103.4763659372637	0.0	323.1087972583181	183.06286401712833	0.0	311.8593779243455	278.47696799449926	0.0	370.19503241980715	322.85028484365046	0.0	468.3788767614994	182.27498820987336	0.0	489.3042572614448	277.13741585577014	0.0	449.8858364827465	336.04513365921196	0.0
16	0.5333333333333333	404.4210965237538	359.28902716740583	0.0	367.45583783553633	365.3281196294696	0.0	360.0184270743746	508.8269938820661	0.0	358.351204876074	628.2056663873599	0.0	357.1617661992202	676.2504348277683	0.0	336.09777203467854	668.8601197327823	0.0	363.757194959319	645.4362293540477	0.0	442.58417186324255	365.4819098641341	0.0	454.73661204839703	505.1857392150777	0.0	475.2672461900962	620.2662528050796	0.0	446.23100114002375	665.7585193727836	0.0	471.46282696532836	663.7981426918261	0.0	484.3587398977773	634.4333586829722	0.0	400.6888628796598	142.71535507659408	0.0	411.80053642687926	47.29935461225347	0.0	443.63315953079416	103.95479876283544	0.0	323.7809494284918	182.67127061072398	0.0	312.74956329897924	278.7912554150467	0.0	370.70150806187996	323.09239347550863	0.0	469.09936348620477	182.52557338824906	0.0	489.86895111819615	277.55451966272767	0.0	451.0535345925839	335.4816010708577	0.0
17	0.5666666666666667	404.96986488327514	359.38735985360245	0.0	368.1834450722393	365.76473580101583	0.0	360.850422484952	508.62779277131335	0.0	358.8534458119527	628.059157017408	0.0	358.2729196761185	676.0806947758848	0.0	337.0955818007818	668.6178823754287	0.0	363.91750851137834	645.0671684335658	0.0	443.23122795315675	365.46844090569243	0.0	454.94002640970643	505.08085900503715	0.0	475.7982659688212	620.8052539026127	0.0	445.5550174366175	665.3877772335748	0.0	471.2828897189438	663.8250024986323	0.0	484.59841465532253	634.7167124698994	0.0	401.36223641574793	142.4558950084596	0.0	413.1510718699167	47.69604703891229	0.0	444.44369224803376	104.01328205100037	0.0	324.36767883399375	182.2937541827516	0.0	313.217692131716	278.67047776818225	0.0	370.99930363099355	322.81624059225805	0.0	469.2700923999807	182.15386130312905	0.0	490.8189112468988	277.13566595590197	0.0	451.95935142445285	335.30666770227197	0.0
18	0.6	405.32154135261345	359.6749562966879	0.0	368.773121418343	365.87507803104864	0.0	361.77112962201204	508.11523216873724	0.0	359.235027472045	628.2563779243325	0.0	359.2317632526091	676.1358235530033	0.0	338.26768987914403	668.6433972791915	0.0	364.1103588716646	645.0523820148431	0.0	443.5418433445341	365.4551843079845	0.0	455.58961972420497	504.9271730825574	0.0	476.08693299192487	621.1850971661761	0.0	444.9459591499279	665.3708164141315	0.0	471.2097448689369	663.9008636801932	0.0	484.7875895850982	635.2915252868937	0.0	402.1718041689585	142.16139255059207	0.0	414.81913775801945	47.74718676126251	0.0	444.8170275949608	103.59292356316567	0.0	324.8693483383294	182.06232630386108	0.0	313.4318250613221	278.1775001566255	0.0	371.5641960591139	322.4990543428554	0.0	469.46039665180786	181.5109273899602	0.0	491.8998554843817	276.57738117449674	0.0	452.2504903635896	335.5898466316173	0.0
19	0.6333333333333333	405.74416287639724	359.7737518146198	0.0	369.1992242673286	365.4823737820101	0.0	362.551441242372	507.8953936240199	0.0	359.3160459017232	628.5510766237292	0.0	359.5465887095874	676.2434704116831	0.0	338.57098554322283	668.8679415815494	0.0	364.34074505157685	644.7110933100134	0.0	443.72271736421834	365.29652237289747	0.0	456.3984921285289	504.7191386412223	0.0	476.0088060000813	621.3369688427837	0.0	445.22968132415355	665.9092245970646	0.0	471.6720102532443	664.2224965247183	0.0	484.8493156368534	636.0924873620941	0.0	403.17399455123586	142.59801493354678	0.0	416.14575678576534	47.272291478485926	0.0	445.4639419475581	103.17000926559038	0.0	325.5401247008697	181.9436675182451	0.0	313.9214204069217	277.64645438881865	0.0	372.5698915742822	322.6149409554387	0.0	470.2273277908584	181.40331193059347	0.0	492.65571544072014	276.7765785623146	0.0	452.45738727195976	335.6355803523194	0.0
20	0.6666666666666666	406.4405760320963	359.8376434284469	0.0	369.78984787533454	365.31403854492004	0.0	363.0023104992969	508.28284419571713	0.0	359.45093026621646	628.863653727575	0.0	359.4966434455	676.4963141437324	0.0	338.5596783649881	668.997602205939	0.0	364.8238907130226	644.6462446076854	0.0	444.2755391631374	365.2917262434147	0.0	457.1796906344057	504.8325744656332	0.0	476.17679541303727	621.522722585315	0.0	446.0469357345793	666.6344101601551	0.0	472.28407219419205	664.7917012971768	0.0	485.13360860452786	636.6873650861542	0.0	403.9887105154714	143.44489395934784	0.0	416.94977080953424	46.84404220797446	0.0	446.6920978477395	103.14378413022727	0.0	326.4451974308889	181.89563220794832	0.0	314.8163985577129	277.203266731341	0.0	373.499574733647	322.5872039221161	0.0	471.118039194758	181.68331419387067	0.0	493.2817447111373	277.1308293207003	0.0	453.4051626541108	335.4419741329461	0.0
21	0.7	407.1066695470088	359.945431837534	0.0	370.45303765237514	365.5257504299808	0.0	363.1402120739888	508.93982540791376	0.0	359.93963298551546	629.4189389944022	0.0	359.232694527799	677.1878047240077	0.0	338.95284302441155	669.1523405486852	0.0	365.62555983049003	645.8275481098624	0.0	445.14375752385695	365.52090813620623	0.0	458.0090922263938	505.2729528033191	0.0	476.972117763567	621.9308140997364	0.0	446.80101177957744	667.3825300180612	0.0	472.6685604969732	665.5280724669601	0.0	485.7078663091871	636.7615499617474	0.0	404.50648194693724	143.77326563538105	0.0	417.6208854409083	46.81735186798666	0.0	448.0910313318695	103.44714748288118	0.0	327.3533089449744	181.80898664256077	0.0	315.8147713483138	277.0508463200744	0.0	374.00209935349113	321.9057575210121	0.0	471.75561972193026	181.7976736091793	0.0	494.05530042487356	276.90059428613625	0.0	454.99457279966487	335.4097957156398	0.0
22	0.7333333333333333	407.49353267783147	359.65337308328026	0.0	370.8896839991147	365.2192157851173	0.0	363.25202279567543	509.3226081964164	0.0	360.6424752120777	630.0937553656341	0.0	358.87796566532006	678.0123770777374	0.0	339.32321497196074	669.7692240748129	0.0	366.4311901996282	647.3472580980379	0.0	445.8619028700407	365.34265523334466	0.0	458.81158553127614	505.4211157005544	0.0	477.82451838723864	622.5006314706054	0.0	447.4566678021872	667.9698587093442	0.0	472.95778597354376	666.1217979426377	0.0	486.12578335653984	636.5990363185473	0.0	405.2090261722271	143.45796882168136	0.0	418.34402220493183	46.71602833345459	0.0	449.2500602345877	103.52582859781803	0.0	328.28858707674965	181.62203350132953	0.0	316.7444356566755	277.4201965890749	0.0	374.3254310302598	321.2970324423477	0.0	472.6167702561792	181.78494472599715	0.0	494.7272660104012	276.8438128259923	0.0	456.23266036849157	335.51220054435544	0.0
23	0.7666666666666666	407.8405235721011	359.1188580734869	0.0	371.2299898005058	364.32635362264716	0.0	363.6472326015155	509.427145157469	0.0	361.290542420824	630.2889162064614	0.0	358.9089134998551	678.3355762653977	0.0	339.39377327866026	670.7535100395396	0.0	366.8178397334005	647.621369095894	0.0	446.39861701417743	364.7694669135904	0.0	459.2759404217643	505.027906097709	0.0	478.0602869924112	622.7580882101818	0.0	447.9873028840375	668.2325093998888	0.0	473.37115303472933	666.2240198397452	0.0	486.12279341273194	636.371824436651	0.0	406.31444813357007	142.88137741631078	0.0	418.9982430907528	46.203798753943296	0.0	450.12560911860055	103.080076031651	0.0	329.3573766921205	181.42699780518586	0.0	317.489356471202	277.93458367196547	0.0	374.62590023578883	321.51807694216734	0.0	473.958870031375	181.92373798481634	0.0	495.1419025935855	277.6157652669562	0.0	456.7042783224913	335.4832790625803	0.0
24	0.8	408.2787197804675	359.3669285352467	0.0	371.6486699571603	364.30717219379903	0.0	364.1828010156257	509.8058749633758	0.0	361.8091465836447	629.9576151111887	0.0	359.5090638468635	678.3055053427935	0.0	339.5793045299447	671.4255203548258	0.0	366.8571608169141	647.2751310929398	0.0	446.90426060519684	364.9594401004996	0.0	459.397545817691	504.8485132133515	0.0	478.0349881155701	622.4995134754945	0.0	448.1947041489323	668.3679011360941	0.0	473.792569430407	665.96534146246	0.0	486.068817832481	636.0394484088852	0.0	407.214115532764	142.2266561700515	0.0	419.5932139347681	45.91345712742125	0.0	450.7756367473753	102.64037849384174	0.0	330.13017113721503	181.4310229274501	0.0	317.7576220359693	278.03844757587945	0.0	374.9186254853877	322.05786504948094	0.0	474.9751170003159	182.14288059905124	0.0	495.60741044646824	278.36642786291515	0.0	457.00997050296996	335.206074434233	0.0
